<?xml version="1.0" encoding="UTF-8" standalone="no"?>
<!DOCTYPE svg PUBLIC "-//W3C//DTD SVG 1.1//EN" "http://www.w3.org/Graphics/SVG/1.1/DTD/svg11.dtd">
<!-- Generated by Microsoft Visio -->
<svg xmlns="http://www.w3.org/2000/svg" xmlns:xlink="http://www.w3.org/1999/xlink" xmlns:ev="http://www.w3.org/2001/xml-events"
		xmlns:v="http://schemas.microsoft.com/visio/2003/SVGExtensions/" width="8.26772in" height="11.6929in"
		viewBox="0 0 595.276 841.89" xml:space="preserve" color-interpolation-filters="sRGB" class="st7">
	<v:documentProperties v:langID="2057" v:metric="true" v:viewMarkup="false">
		<v:userDefs>
			<v:ud v:nameU="msvNoAutoConnect" v:val="VT0(1):26"/>
		</v:userDefs>
	</v:documentProperties>

	<style type="text/css">
	<![CDATA[
		.st1 {fill:#ffffff;stroke:#000000;stroke-linecap:round;stroke-linejoin:round;stroke-width:0.75}
		.st2 {fill:#000000;font-family:Calibri;font-size:1.00001em}
		.st3 {fill:#000000}
		.st4 {fill:#4d1e1a;font-family:Calibri;font-size:1.00001em}
		.st5 {font-size:1em}
		.st6 {fill:#4d1e1a;font-family:Calibri;font-size:0.833336em}
		.st7 {fill:none;fill-rule:evenodd;font-size:12px;overflow:visible;stroke-linecap:square;stroke-miterlimit:3}
	]]>
	</style>

	<g v:mID="0" v:index="1" v:groupContext="foregroundPage">
		<title>Page-1</title>
		<v:pageProperties v:drawingScale="0.0393701" v:pageScale="0.0393701" v:drawingUnits="24" v:shadowOffsetX="8.50394"
				v:shadowOffsetY="-8.50394"/>
		<g id="shape1-1" v:mID="1" v:groupContext="shape" transform="translate(18,-710.504)">
			<title>Sheet.1</title>
			<desc>Shape Text</desc>
			<v:textBlock v:margins="rect(4,4,4,4)" v:tabSpace="42.5197"/>
			<v:textRect cx="77.9528" cy="785.197" width="155.91" height="113.386"/>
			<rect x="0" y="728.504" width="155.906" height="113.386" class="st1"/>
			<text x="51.16" y="788.8" class="st2" v:langID="2057"><v:paragraph v:horizAlign="1"/><v:tabList/>Shape Text</text>		</g>
		<g id="shape5-4" v:mID="5" v:groupContext="shape" transform="translate(421.37,-710.504)">
			<title>Sheet.5</title>
			<desc>Shape to copy</desc>
			<v:custProps>
				<v:cp v:nameU="Row_1" v:lbl="Network Name" v:type="0" v:langID="2057" v:val="VT4(Box01)"/>
			</v:custProps>
			<v:textBlock v:margins="rect(4,4,4,4)" v:tabSpace="42.5197"/>
			<v:textRect cx="77.9528" cy="785.197" width="155.91" height="113.386"/>
			<rect x="0" y="728.504" width="155.906" height="113.386" class="st1"/>
			<text x="43.58" y="788.8" class="st2" v:langID="2057"><v:paragraph v:horizAlign="1"/><v:tabList/>Shape to copy</text>		</g>
		<g id="group7-7" transform="translate(354.331,-613.701)" v:mID="7" v:groupContext="group">
			<v:custProps>
				<v:cp v:nameU="ShapeClass" v:lbl="ShapeClass" v:prompt="" v:type="0" v:format="" v:sortKey="" v:invis="true"
						v:ask="false" v:langID="1033" v:cal="0" v:val="VT4(Location)"/>
				<v:cp v:nameU="ShapeType" v:lbl="ShapeType" v:prompt="" v:type="0" v:format="" v:sortKey="" v:invis="true"
						v:ask="false" v:langID="1033" v:cal="0" v:val="VT4(House)"/>
				<v:cp v:nameU="ShapeClass" v:lbl="" v:prompt="" v:type="0" v:format="" v:sortKey="" v:invis="false" v:ask="false"
						v:langID="0" v:cal="0" v:val="VT4(Changed)"/>
			</v:custProps>
			<v:userDefs>
				<v:ud v:nameU="visVersion" v:prompt="" v:val="VT0(15):26"/>
				<v:ud v:nameU="ShapeClass" v:prompt="" v:val="VT0(5):26"/>
				<v:ud v:nameU="SolSH" v:prompt="" v:val="VT15({BF0433D9-CD73-4EB5-8390-8653BE590246}):41"/>
				<v:ud v:nameU="visLegendShape" v:prompt="" v:val="VT0(2):26"/>
			</v:userDefs>
			<title>House</title>
			<desc>Shape for context filter: The scenario is {{scenario}} and th...</desc>
			<g id="shape8-8" v:mID="8" v:groupContext="shape" transform="translate(8.83769,-2.33363)">
				<title>Sheet.8</title>
				<path d="M53.22 805.01 L26.79 784.03 L0.02 805.13 L0 841.89 L53.22 841.89 L53.22 805.01 Z" class="st1"/>
			</g>
			<g id="shape9-10" v:mID="9" v:groupContext="shape" transform="translate(18.2774,-4.41847)">
				<title>Sheet.9</title>
				<v:userDefs>
					<v:ud v:nameU="SurroundingRegionColor" v:prompt="" v:val="VT0(1):26"/>
				</v:userDefs>
				<path d="M0 841.89 L11.11 841.89 L11.11 820.71 L0 820.71 L0 841.89 ZM29.71 825 L35.64 825 L35.64 819.06 L29.71 819.06
							 L29.71 825 ZM22.18 825 L28.12 825 L28.12 819.06 L22.18 819.06 L22.18 825 ZM22.18 817.28 L28.12 817.28
							 L28.12 811.34 L22.18 811.34 L22.18 817.28 ZM29.71 817.28 L35.64 817.28 L35.64 811.34 L29.71 811.34 L29.71
							 817.28 Z" class="st3"/>
			</g>
			<g id="shape10-13" v:mID="10" v:groupContext="shape" transform="translate(0,-39.0972)">
				<title>Sheet.10</title>
				<path d="M62.05 841.77 L70.87 841.81 L35.45 812.45 L18.15 826.8 L18.15 820.39 L9.67 820.39 L9.67 833.84 L0 841.86
							 L8.86 841.89 L35.62 820.79 L62.05 841.77 Z" class="st1"/>
			</g>
			<g id="shape7-15" v:mID="7" v:groupContext="groupContent">
				<v:textBlock v:margins="rect(4,4,4,4)" v:tabSpace="42.5197"/>
				<v:textRect cx="35.4331" cy="867.492" width="177.17" height="51.2039"/>
				<text x="-32.8" y="856.69" class="st4" v:langID="2057"><v:paragraph v:horizAlign="1"/><v:tabList/>Shape for context filter: The <tspan
							x="-40.38" dy="1.2em" class="st5">scenario is {{scenario}} and this </tspan><tspan x="-30.59"
							dy="1.2em" class="st5">file was created on {{date}}</tspan></text>			</g>
		</g>
		<g id="group11-19" transform="translate(262.205,-731.764)" v:mID="11" v:groupContext="group">
			<v:custProps>
				<v:cp v:nameU="ShapeClass" v:lbl="ShapeClass" v:prompt="" v:type="0" v:format="" v:sortKey="" v:invis="true"
						v:ask="false" v:langID="1033" v:cal="0" v:val="VT4(Location)"/>
				<v:cp v:nameU="ShapeType" v:lbl="ShapeType" v:prompt="" v:type="0" v:format="" v:sortKey="" v:invis="true"
						v:ask="false" v:langID="1033" v:cal="0" v:val="VT4(House)"/>
				<v:cp v:nameU="ShapeClass" v:lbl="Network Name" v:prompt="" v:type="0" v:format="" v:sortKey="" v:invis="false"
						v:ask="false" v:langID="0" v:cal="0" v:val="VT4(House01)"/>
			</v:custProps>
			<v:userDefs>
				<v:ud v:nameU="visVersion" v:prompt="" v:val="VT0(15):26"/>
				<v:ud v:nameU="ShapeClass" v:prompt="" v:val="VT0(5):26"/>
				<v:ud v:nameU="SolSH" v:prompt="" v:val="VT15({BF0433D9-CD73-4EB5-8390-8653BE590246}):41"/>
				<v:ud v:nameU="visLegendShape" v:prompt="" v:val="VT0(2):26"/>
			</v:userDefs>
			<title>House.11</title>
			<desc>Shape to remove</desc>
			<g id="shape12-20" v:mID="12" v:groupContext="shape" transform="translate(8.83769,-2.33363)">
				<title>Sheet.12</title>
				<path d="M53.22 805.01 L26.79 784.03 L0.02 805.13 L0 841.89 L53.22 841.89 L53.22 805.01 Z" class="st1"/>
			</g>
			<g id="shape13-22" v:mID="13" v:groupContext="shape" transform="translate(18.2774,-4.41847)">
				<title>Sheet.13</title>
				<v:userDefs>
					<v:ud v:nameU="SurroundingRegionColor" v:prompt="" v:val="VT0(1):26"/>
				</v:userDefs>
				<path d="M0 841.89 L11.11 841.89 L11.11 820.71 L0 820.71 L0 841.89 ZM29.71 825 L35.64 825 L35.64 819.06 L29.71 819.06
							 L29.71 825 ZM22.18 825 L28.12 825 L28.12 819.06 L22.18 819.06 L22.18 825 ZM22.18 817.28 L28.12 817.28
							 L28.12 811.34 L22.18 811.34 L22.18 817.28 ZM29.71 817.28 L35.64 817.28 L35.64 811.34 L29.71 811.34 L29.71
							 817.28 Z" class="st3"/>
			</g>
			<g id="shape14-25" v:mID="14" v:groupContext="shape" transform="translate(0,-39.0972)">
				<title>Sheet.14</title>
				<path d="M62.05 841.77 L70.87 841.81 L35.45 812.45 L18.15 826.8 L18.15 820.39 L9.67 820.39 L9.67 833.84 L0 841.86
							 L8.86 841.89 L35.62 820.79 L62.05 841.77 Z" class="st1"/>
			</g>
			<g id="shape11-27" v:mID="11" v:groupContext="groupContent">
				<v:textBlock v:margins="rect(4,4,4,4)" v:tabSpace="42.5197"/>
				<v:textRect cx="35.4331" cy="851.892" width="79.5" height="20.0036"/>
				<text x="0.82" y="854.89" class="st6" v:langID="2057"><v:paragraph v:horizAlign="1"/><v:tabList/>Shape to remove</text>			</g>
		</g>
		<g id="group15-29" transform="translate(354.331,-613.701)" v:mID="15" v:groupContext="group">
			<v:custProps>
				<v:cp v:nameU="ShapeClass" v:lbl="ShapeClass" v:prompt="" v:type="0" v:format="" v:sortKey="" v:invis="true"
						v:ask="false" v:langID="1033" v:cal="0" v:val="VT4(Location)"/>
				<v:cp v:nameU="ShapeType" v:lbl="ShapeType" v:prompt="" v:type="0" v:format="" v:sortKey="" v:invis="true"
						v:ask="false" v:langID="1033" v:cal="0" v:val="VT4(House)"/>
			</v:custProps>
			<v:userDefs>
				<v:ud v:nameU="visVersion" v:prompt="" v:val="VT0(15):26"/>
				<v:ud v:nameU="ShapeClass" v:prompt="" v:val="VT0(5):26"/>
				<v:ud v:nameU="SolSH" v:prompt="" v:val="VT15({BF0433D9-CD73-4EB5-8390-8653BE590246}):41"/>
				<v:ud v:nameU="visLegendShape" v:prompt="" v:val="VT0(2):26"/>
			</v:userDefs>
			<title>House.15</title>
			<desc>Shape for context filter: The scenario is {{scenario}} and th...</desc>
			<g id="shape16-30" v:mID="16" v:groupContext="shape" transform="translate(8.83769,-2.33363)">
				<title>Sheet.16</title>
				<path d="M53.22 805.01 L26.79 784.03 L0.02 805.13 L0 841.89 L53.22 841.89 L53.22 805.01 Z" class="st1"/>
			</g>
			<g id="shape17-32" v:mID="17" v:groupContext="shape" transform="translate(18.2774,-4.41847)">
				<title>Sheet.17</title>
				<v:userDefs>
					<v:ud v:nameU="SurroundingRegionColor" v:prompt="" v:val="VT0(1):26"/>
				</v:userDefs>
				<path d="M0 841.89 L11.11 841.89 L11.11 820.71 L0 820.71 L0 841.89 ZM29.71 825 L35.64 825 L35.64 819.06 L29.71 819.06
							 L29.71 825 ZM22.18 825 L28.12 825 L28.12 819.06 L22.18 819.06 L22.18 825 ZM22.18 817.28 L28.12 817.28
							 L28.12 811.34 L22.18 811.34 L22.18 817.28 ZM29.71 817.28 L35.64 817.28 L35.64 811.34 L29.71 811.34 L29.71
							 817.28 Z" class="st3"/>
			</g>
			<g id="shape18-35" v:mID="18" v:groupContext="shape" transform="translate(0,-39.0972)">
				<title>Sheet.18</title>
				<path d="M62.05 841.77 L70.87 841.81 L35.45 812.45 L18.15 826.8 L18.15 820.39 L9.67 820.39 L9.67 833.84 L0 841.86
							 L8.86 841.89 L35.62 820.79 L62.05 841.77 Z" class="st1"/>
			</g>
			<g id="shape15-37" v:mID="15" v:groupContext="groupContent">
				<v:textBlock v:margins="rect(4,4,4,4)" v:tabSpace="42.5197"/>
				<v:textRect cx="35.4331" cy="867.492" width="177.17" height="51.2039"/>
				<text x="-32.8" y="856.69" class="st4" v:langID="2057"><v:paragraph v:horizAlign="1"/><v:tabList/>Shape for context filter: The <tspan
							x="-40.38" dy="1.2em" class="st5">scenario is {{scenario}} and this </tspan><tspan x="-30.59"
							dy="1.2em" class="st5">file was created on {{date}}</tspan></text>			</g>
		</g>
	</g>
</svg>
